<svg viewBox="0 0 1440 200" fill="none" preserveAspectRatio="none" xmlns="http://www.w3.org/2000/svg">
	<path d="M2153.58 43.1755C2153.58 43.1755 2035.31 50.3361 1951.37 51.0194C1867.42 51.7027 1797.48 33.0631 1726.27 29.6468C1655.06 26.2305 1568.58 38.5384 1499.9 46.9653C1431.22 55.3923 1366.36 53.2878 1272.25 53.2878C1178.14 53.2878 1054.78 30.5396 959.399 29.6468C864.017 28.754 804.242 46.5463 767.359 46.9653C730.476 47.3844 729.187 41.891 708.832 34.6848C688.477 27.4786 665.753 26.0574 619.968 13.0024C574.183 -0.0525366 562.127 -1.06377 532.871 0.62162C503.614 2.30701 488.838 2.73519 432.876 12.0003C376.914 21.2654 319.691 0.20255 268.817 0.62162C217.944 1.04069 225.584 4.83055 203.953 9.88672C182.323 14.9429 122.73 18.9332 88.3844 17.2478C54.053 15.5624 -7.16608 15.3711 -89.8195 38.5384C-172.487 61.7148 -220.809 65.0856 -256.416 63.8193C-292.023 62.5529 -300.925 60.0294 -350.523 54.9732C-400.12 49.9171 -431.914 51.1834 -482.788 56.7862C-533.661 62.3981 -570.544 60.8676 -640.482 57.4968C-710.435 54.1169 -717.43 63.8102 -717.43 63.8102V200H2153.58Z" fill="currentColor"/>
</svg>
