<svg preserveAspectRatio="none" width="100%" height="100%" overflow="visible" style="display: block;" viewBox="0 0 2719.01 162.419" fill="none" xmlns="http://www.w3.org/2000/svg">
<path id="Vector" d="M133.854 150.062C177.904 153.921 214.623 115.294 252.64 99.9774C302.022 80.0898 351.517 106.085 399.1 91.3187C442.648 77.8042 470.085 38.1523 517.753 33.6664C544.783 31.1247 567.457 41.2914 593.512 43.9279C616.602 46.2609 641.189 43.8331 664.421 43.8331C735.823 43.8331 806.449 76.5713 875.758 46.3653C893.961 38.4273 911.634 27.6726 928.407 17.0697C953.79 1.02305 970.08 0.842857 1000.32 0.842857C1028.84 0.842857 1057.36 0.842857 1085.88 0.842857C1119.67 0.842857 1155.9 -2.2394 1189.06 3.38452C1211.73 7.23496 1225.2 21.4797 1247.53 27.3976C1268.31 32.9077 1289.91 36.227 1310.8 41.3768C1347.42 50.3959 1400.2 62.943 1437.14 50.7942C1460.03 43.2641 1470.35 28.5736 1496.12 28.8866C1519.56 29.1711 1545.11 35.1743 1568.35 38.7877C1611.51 45.4928 1647 61.5963 1691.72 61.5489C1720.31 61.5204 1749.51 63.3034 1778.02 61.5489C1822.68 58.7986 1859.5 38.5601 1899.25 21.1572C1952.07 -1.97384 1986.8 11.3415 2038.87 26.7148C2077.42 38.1048 2117.44 50.1683 2156.81 56.494C2187.74 61.4635 2222.92 52.4918 2253.36 59.4624C2276.89 64.8493 2296.63 84.4524 2317.89 94.5621C2334.28 102.358 2352.01 106.009 2368.85 111.946C2413.27 127.613 2454.69 135.001 2502.88 134.897C2519.4 134.859 2535.9 133.152 2550.87 139.952L2719.01 162.419H0L133.854 150.071V150.062Z" fill="var(--fill-0, #F5E9E0)"/>
</svg>
