<svg preserveAspectRatio="none" width="100%" height="100%" overflow="visible" style="display: block;" viewBox="0 0 2715.04 259.383" fill="none" xmlns="http://www.w3.org/2000/svg">
<path id="Vector" d="M0 259.364C15.9397 256.509 84.027 235.123 100.185 227.517C119.202 218.555 153.487 177.775 170.905 164.981C190.709 150.423 252.924 139.175 271.932 122.095C289.378 106.428 355.22 121.384 374.636 110.364C409.982 90.3147 446.995 64.9928 486.612 62.7641C515.196 61.1519 542.889 66.8991 571.633 66.8991C602.897 66.8991 632.144 59.8052 663.019 66.956C695.884 74.5715 737.026 87.2229 771.235 78.3556C792.848 72.7506 806.856 51.0895 825.912 39.4434C840.885 30.2915 857.242 27.8921 873.314 25.4642C904.067 20.8076 936.23 27.4274 966.907 21.8793C987.355 18.1901 1006.02 5.61453 1025.91 1.09074C1042.35 -2.65538 1057.56 4.27731 1073.4 6.43014C1105.58 10.7927 1142.52 8.82007 1174.54 4.88427C1215.45 -0.151643 1242.35 8.96233 1280.59 26.0901C1315.42 41.691 1349.4 66.7473 1386.65 57.0264C1430.13 45.6743 1470.75 29.2293 1516.22 40.0219C1536.49 44.8302 1557.17 54.9305 1577.63 61.2277C1603.32 69.1373 1629.25 64.7747 1655.26 68.9286C1679.64 72.8265 1701.73 81.4378 1726.68 81.3999C1753.48 81.3619 1773.86 73.1584 1799.17 62.7831C1823.59 52.7777 1842.33 49.0505 1868.06 48.2918C1888.79 47.6754 1905.4 38.4855 1925.37 32.2072C1969.08 18.4556 2016.15 48.0452 2058.39 60.7156C2080.94 67.4776 2105.99 70.0098 2129.19 71.0625C2145.3 71.7927 2163.51 73.4145 2179.39 71.0625C2191.36 69.289 2201.31 62.7831 2213.2 60.6777C2266.4 51.2602 2323.97 96.3654 2364.83 129.701C2387.05 147.834 2390.39 162.231 2415.77 174.588C2435.86 184.375 2520.64 170.728 2536.57 186.433C2552.71 202.338 2696.15 248.865 2715.04 259.383H0V259.364Z" fill="var(--fill-0, #ED754A)"/>
</svg>
