<svg viewBox="0 0 1440 178" fill="none" preserveAspectRatio="none" xmlns="http://www.w3.org/2000/svg">
	<path d="M-640.482 86.3925C-570.53 89.7633 -533.661 91.2847 -482.788 85.6819C-431.914 80.07 -400.12 78.8128 -350.523 83.869C-300.925 88.9252 -292.023 91.4487 -256.416 92.715C-220.809 93.9814 -172.473 90.6106 -89.8195 67.4342C-7.15204 44.2577 54.053 44.4582 88.3844 46.1436C122.716 47.8289 182.323 43.8387 203.953 38.7825C225.584 33.7263 217.944 29.9365 268.817 29.5174C319.691 29.0983 376.914 50.1612 432.876 40.8961C488.838 31.631 503.628 31.2028 532.871 29.5174C562.127 27.832 574.183 28.8432 619.968 41.8982C665.753 54.9531 688.477 56.3743 708.832 63.5805C729.187 70.7867 730.476 76.2893 767.359 75.8611C804.242 75.442 864.017 57.6498 959.399 58.5426C1054.78 59.4354 1178.14 82.1836 1272.25 82.1836C1366.36 82.1836 1431.22 84.2881 1499.9 75.8611C1568.58 67.4342 1655.06 55.1262 1726.27 58.5426C1797.48 61.9589 1867.44 80.5984 1951.37 79.9152C2035.3 79.2319 2153.58 72.0713 2153.58 72.0713V28.825C2153.58 28.825 2135.64 35.5666 2076.68 42.3081C2017.72 49.0497 1969.02 43.1463 1969.02 43.1463C1969.02 43.1463 1892.11 34.7193 1792.14 23.7688C1692.18 12.8183 1639.65 24.7072 1608.89 28.0689C1578.14 31.4396 1500.6 47.1457 1423.69 45.7154C1346.79 44.276 1274.34 30.5104 1230.77 35.8126C1204.04 39.0649 1148.36 40.1399 1109.31 40.477C1084.68 40.6956 1060.42 38.573 1039.31 34.3914C1028.57 32.2687 1015.18 29.9365 1000.07 27.9778C960.983 22.9216 961.614 25.4542 902.652 29.6631C843.69 33.8721 861.634 34.7193 815.499 35.8126C769.364 36.9058 766.798 35.5666 725.78 27.1396C684.762 18.7127 705.425 22.3203 625.954 7.98992C546.483 -6.33136 533.53 1.01148 479.698 11.1238C425.867 21.2362 448.942 17.0182 387.414 16.18C325.887 15.3419 338.714 11.1238 292.565 7.75305C276.359 6.56872 259.523 6.21342 244.495 6.25897C219.836 6.32274 195.486 8.14479 173.099 11.5702C160.398 13.5107 142.608 15.8794 120.809 17.8654C74.6743 22.0743 61.8472 24.607 5.45056 32.1867C-11.4698 34.4642 -25.8528 35.9037 -37.6844 36.8056C-73.8103 39.5569 -107.231 45.2872 -135.226 53.286C-159.169 60.1186 -183.996 67.7803 -194.496 72.873C-217.571 84.0694 -268.836 78.5304 -327.798 72.873C-386.76 67.2155 -425.213 70.9507 -504.671 72.6361C-584.142 74.3215 -563.633 66.7418 -625.146 62.5237C-686.673 58.3239 -717.43 72.6452 -717.43 72.6452V92.715C-717.43 92.715 -710.435 83.0218 -640.482 86.3925Z" fill="var(--fb-color-fire, #e95429)"/>
	<path d="M-564.179 103.492C-494.227 108.967 -442.723 94.9558 -374.046 93.2158C-305.369 91.4848 -230.972 118.232 -166.108 110.653C-101.245 103.073 -63.1001 95.9033 -26.2173 88.7426C10.6655 81.582 64.0762 84.2057 132.753 79.7326C201.43 75.2595 215.42 48.2932 355.312 59.2528C495.203 70.2033 486.301 73.5741 546.076 70.6315C605.851 67.6889 627.468 59.7721 679.617 79.7417C731.752 99.7022 824.597 92.5416 890.722 84.1146C956.848 75.6877 1159.07 119.089 1329.48 117.403C1499.88 115.718 1588.92 101.816 1693.2 103.501C1797.48 105.187 1984.44 122.879 2046.75 124.992C2109.06 127.097 2153.58 124.992 2153.58 124.992V72.08C2153.58 72.08 2035.31 79.2407 1951.37 79.9239C1867.42 80.6072 1797.48 61.9677 1726.27 58.5513C1655.06 55.135 1568.58 67.4429 1499.9 75.8699C1431.22 84.2968 1366.36 82.1924 1272.25 82.1924C1178.14 82.1924 1054.78 59.4441 959.399 58.5513C864.017 57.6585 804.242 75.4508 767.359 75.8699C730.476 76.289 729.187 70.7955 708.832 63.5893C688.477 56.3831 665.753 54.9619 619.968 41.907C574.183 28.852 562.127 27.8408 532.871 29.5262C503.614 31.2116 488.838 31.6397 432.876 40.9048C376.914 50.1699 319.691 29.1071 268.817 29.5262C217.944 29.9452 225.584 33.7351 203.953 38.7913C182.323 43.8474 122.73 47.8377 88.3844 46.1523C54.053 44.4669 -7.16608 44.2756 -89.8195 67.4429C-172.487 90.6193 -220.809 93.9901 -256.416 92.7238C-292.023 91.4575 -300.925 88.934 -350.523 83.8778C-400.12 78.8216 -431.914 80.0879 -482.788 85.6907C-533.661 91.3026 -570.544 89.7721 -640.482 86.4013C-710.435 83.0214 -717.43 92.7147 -717.43 92.7147V103.492C-717.43 103.492 -634.132 98.0169 -564.179 103.492Z" fill="var(--fb-color-fire-40, #ed754a)"/>
	<path d="M2046.73 124.983C1984.42 122.879 1797.47 105.178 1693.19 103.492C1588.9 101.807 1499.88 115.709 1329.46 117.394C1159.05 119.08 956.834 75.6878 890.708 84.1056C824.583 92.5326 776.05 123.59 718.07 112.165C659.332 100.595 605.837 109.214 546.062 112.165C486.287 115.117 495.189 123.116 355.297 112.165C215.406 101.215 201.416 118.406 132.739 122.879C64.0621 127.352 10.6514 122.396 -26.2314 129.557C-63.1143 136.717 -101.259 132.745 -166.123 140.325C-230.986 147.905 -305.383 110.425 -374.06 112.156C-442.737 113.887 -494.241 138.64 -564.193 133.164C-634.146 127.689 -717.444 133.164 -717.444 133.164V323.896H2153.56V162.964C2153.56 162.964 2109.03 166.18 2046.72 164.075L2046.73 164.084Z" fill="var(--fb-color-fire-20, #f8cab0)"/>
	<path d="M2046.73 164.084C2039.63 163.848 2030.96 163.347 2021.05 162.654C2004.36 161.488 1984.1 159.757 1961.66 157.753C1880.53 150.51 1770.92 139.642 1698.54 138.467C1594.26 136.781 1499.87 153.489 1329.46 155.175C1159.05 156.86 956.834 105.36 890.708 113.787C824.583 122.214 776.05 123.59 718.07 112.165C659.332 100.595 605.837 109.214 546.062 112.165C486.287 115.117 495.189 123.116 355.297 112.165C215.406 101.215 201.416 118.406 132.739 122.879C64.0621 127.352 10.6514 122.396 -26.2314 129.557C-63.1143 136.717 -101.259 132.745 -166.123 140.325C-230.986 147.905 -305.383 110.425 -374.06 112.156C-442.737 113.887 -494.241 138.64 -564.193 133.164C-634.146 127.689 -717.444 133.164 -717.444 133.164V323.896H2153.56V162.964C2153.56 162.964 2109.03 166.18 2046.72 164.075L2046.73 164.084Z" fill="var(--fb-color-air, #f5e9e0)"/>
</svg>
