<svg viewBox="0 0 1440 200" fill="none" preserveAspectRatio="none" xmlns="http://www.w3.org/2000/svg">
	<path d="M2153.58 28.825C2153.58 28.825 2135.64 35.5666 2076.68 42.3081C2017.72 49.0497 1969.02 43.1463 1969.02 43.1463C1969.02 43.1463 1892.11 34.7193 1792.14 23.7688C1692.18 12.8183 1639.65 24.7072 1608.89 28.0689C1578.14 31.4396 1500.6 47.1457 1423.69 45.7154C1346.79 44.276 1274.34 30.5104 1230.77 35.8126C1204.04 39.0649 1148.36 40.1399 1109.31 40.477C1084.68 40.6956 1060.42 38.573 1039.31 34.3914C1028.57 32.2687 1015.18 29.9365 1000.07 27.9778C960.983 22.9216 961.614 25.4542 902.652 29.6631C843.69 33.8721 861.634 34.7193 815.499 35.8126C769.364 36.9058 766.798 35.5666 725.78 27.1396C684.762 18.7127 705.425 22.3203 625.954 7.98992C546.483 -6.33136 533.53 1.01148 479.698 11.1238C425.867 21.2362 448.942 17.0182 387.414 16.18C325.887 15.3419 338.714 11.1238 292.565 7.75305C276.359 6.56872 259.523 6.21342 244.495 6.25897C219.836 6.32274 195.486 8.14479 173.099 11.5702C160.398 13.5107 142.608 15.8794 120.809 17.8654C74.6743 22.0743 61.8472 24.607 5.45056 32.1867C-11.4698 34.4642 -25.8528 35.9037 -37.6844 36.8056C-73.8103 39.5569 -107.231 45.2872 -135.226 53.286C-159.169 60.1186 -183.996 67.7803 -194.496 72.873C-217.571 84.0694 -268.836 78.5304 -327.798 72.873C-386.76 67.2155 -425.213 70.9507 -504.671 72.6361C-584.142 74.3215 -563.633 66.7418 -625.146 62.5237C-686.673 58.3239 -717.43 72.6452 -717.43 72.6452V200H2153.58Z" fill="currentColor"/>
</svg>
