<svg preserveAspectRatio="none" width="100%" height="100%" overflow="visible" style="display: block;" viewBox="0 0 2715.03 296.006" fill="none" xmlns="http://www.w3.org/2000/svg">
<path id="Vector" d="M0 296.006C116.181 230.549 209.603 153.275 246.663 136.128C283.174 119.237 330.501 127.782 362.882 103.39C390.367 82.6864 439.854 54.4341 475.645 59.9252C492.096 62.4479 507.42 68.7357 524.477 69.6651C542.368 70.6419 559.17 66.3647 576.757 64.6576C616.782 60.7693 650.252 64.7714 689.529 73.4112C708.708 77.6315 726.286 83.4261 745.891 77.2616C766.699 70.7178 780.896 52.6226 803.058 48.573C824.188 44.7131 843.821 46.0978 864.999 39.6488C882.899 34.1956 902.163 29.226 920.499 25.3661C937.139 21.8571 954.197 23.7444 970.553 20.7664C989.713 17.2764 1010.75 -0.382513 1030.45 0.00632397C1062.41 0.641741 1090.28 23.6306 1122.09 24.1332C1162.1 24.7686 1194.49 -3.87256 1236.24 0.452064C1254.41 2.32986 1271.65 10.0023 1288.61 16.1763C1307.55 23.071 1320.46 38.1503 1339.42 42.7784C1373.04 50.9725 1412.77 40.6635 1443.77 30.6865C1466.22 23.4598 1481.73 21.5631 1502.53 31.6918C1524.36 42.3232 1546.53 44.4476 1570.83 44.3812C1608.97 44.2769 1650.35 28.6475 1686.3 38.8995C1722.25 49.1516 1762.99 49.8154 1802.07 47.748C1829.69 46.2874 1847.49 37.8753 1871.59 27.0258C1892.71 17.5135 1914.81 19.1163 1937.47 19.0878C1962.62 19.0594 1987.93 21.345 2012.65 25.8213C2036.07 30.0606 2055.9 40.2462 2078.94 46.4771C2118.75 57.2413 2158.83 46.6004 2198.11 41.0049C2219.29 37.9891 2244.83 36.5191 2265.8 40.9196C2285 44.9502 2301.26 60.2761 2316.8 71.3343C2339.61 87.5706 2359.78 104.177 2387.46 112.532C2413.34 120.337 2419.64 161.431 2443.94 173.21C2450.56 176.415 2497.22 186.421 2542.44 202.714C2565.86 211.154 2588.99 234.181 2614 238.961C2688.93 253.291 2708.32 290.373 2715.03 295.997H0V296.006Z" fill="var(--fill-0, #E95429)"/>
</svg>
