<svg viewBox="0 0 1440 200" fill="none" preserveAspectRatio="none" xmlns="http://www.w3.org/2000/svg">
	<path d="M2046.73 68.3353C1984.42 66.2308 1797.47 48.5296 1693.19 46.8442C1588.9 45.1589 1499.88 59.0611 1329.46 60.7465C1159.05 62.4319 956.834 19.0398 890.708 27.4577C824.583 35.8846 731.738 43.0453 679.603 23.0848C627.454 3.12426 605.837 11.0319 546.062 13.9745C486.287 16.9171 495.189 13.5555 355.298 2.59587C215.406 -8.35463 201.416 18.6025 132.739 23.0757C64.0622 27.5488 10.6515 24.925 -26.2313 32.0857C-63.1141 39.2463 -101.259 46.407 -166.122 53.9958C-230.986 61.5846 -305.383 34.8279 -374.06 36.5588C-442.737 38.2897 -494.241 52.3104 -564.193 46.8351C-634.146 41.3599 -717.444 46.8351 -717.444 46.8351V200H2153.57V68.3353C2153.57 68.3353 2109.05 70.4397 2046.73 68.3353Z" fill="currentColor"/>
</svg>
