<svg viewBox="0 0 1440 200" fill="none" preserveAspectRatio="none" xmlns="http://www.w3.org/2000/svg">
	<path d="M2046.73 57.7822C2039.63 57.5454 2030.96 57.0443 2021.05 56.3519C2004.36 55.1858 1984.1 53.4549 1961.66 51.4506C1880.53 44.208 1770.92 33.3395 1698.54 32.1643C1594.26 30.4789 1499.87 47.187 1329.46 48.8724C1159.05 50.5578 956.834 -0.94229 890.708 7.48467C824.583 15.9116 776.05 17.2873 718.07 5.86305C659.332 -5.70694 605.837 2.91134 546.062 5.86305C486.287 8.81476 495.189 16.8135 355.297 5.86305C215.406 -5.08744 201.416 12.1036 132.739 16.5767C64.0621 21.0498 10.6514 16.0938 -26.2314 23.2545C-63.1143 30.4151 -101.259 26.4431 -166.123 34.0228C-230.986 41.6025 -305.383 4.123 -374.06 5.85394C-442.737 7.58488 -494.241 32.3374 -564.193 26.8621C-634.146 21.3869 -717.444 26.8621 -717.444 26.8621V200H2153.56V56.6617C2153.56 56.6617 2109.03 59.8776 2046.72 57.7731L2046.73 57.7822Z" fill="currentColor"/>
</svg>
