<svg preserveAspectRatio="none" width="100%" height="100%" overflow="visible" style="display: block;" viewBox="0 0 2719.02 209.966" fill="none" xmlns="http://www.w3.org/2000/svg">
<path id="Vector" d="M0 209.957C40.3655 200.966 83.8754 204.039 121.513 182.15C162.182 158.497 189.506 132.559 237.486 121.748C281.915 111.733 314.334 93.8177 361.168 93.922C408.002 94.0263 433.176 67.9363 475.01 56.9445C519.154 45.3458 570.904 55.9866 616.251 55.9866C668.645 55.9866 715.498 71.1513 767.778 71.1608C809.394 71.1608 833.47 70.1365 869.118 47.0434C915.621 16.9132 955.731 10.4452 1010.25 12.9964C1064.76 15.5476 1106.39 7.25868 1156.74 0.923475C1212.51 -6.08508 1237.05 28.7111 1287.85 40.8125C1323.6 49.329 1364.63 59.8371 1401.73 51.6146C1424.16 46.645 1443.92 34.629 1466.77 30.7691C1493.83 26.1979 1513.41 35.4731 1539.94 40.822C1627.17 58.405 1715.23 90.7828 1803.09 62.3123C1846.48 48.2478 1888 33.3392 1931.61 20.5171C1975.03 7.74236 2028.92 36.5637 2073.66 45.8769C2112.63 53.9855 2155.54 71.8626 2196.01 65.9162C2219.25 62.502 2236.78 53.4165 2260.99 62.834C2278.57 69.6718 2299.18 85.9745 2315.87 96.3309C2338.62 110.462 2353.04 129.667 2379.26 139.293C2398.13 146.216 2422.16 150.939 2442.46 154.742C2462.64 158.516 2482.71 156.762 2503.02 154.694C2533.2 151.622 2547.24 158.004 2573.86 171.301C2593.58 181.154 2614.83 191.473 2636.75 195.086L2719.02 209.966H0V209.957Z" fill="var(--fill-0, #F8CAB0)"/>
</svg>
