<svg xmlns="http://www.w3.org/2000/svg" width="32" height="32" viewBox="0 0 32 32" fill="none">
  <path d="M12.0013 16.0001L14.668 18.6667L20.668 12.6667M23.8695 6.66476C24.1441 7.32879 24.6711 7.85661 25.3347 8.13218L27.6616 9.09605C28.3257 9.37112 28.8533 9.89874 29.1283 10.5628C29.4034 11.2269 29.4034 11.9731 29.1283 12.6372L28.1652 14.9625C27.89 15.6269 27.8896 16.3738 28.1661 17.0378L29.1275 19.3625C29.2639 19.6914 29.3341 20.0439 29.3342 20.4C29.3342 20.7561 29.2641 21.1087 29.1279 21.4376C28.9916 21.7666 28.7919 22.0655 28.5401 22.3172C28.2883 22.5689 27.9893 22.7686 27.6603 22.9047L25.3351 23.8679C24.6711 24.1425 24.1433 24.6695 23.8677 25.3331L22.9039 27.6601C22.6288 28.3242 22.1012 28.8518 21.4372 29.1269C20.7731 29.402 20.027 29.402 19.3629 29.1269L17.0377 28.1637C16.3736 27.8893 15.6277 27.8899 14.9641 28.1653L12.6372 29.1278C11.9735 29.4022 11.228 29.402 10.5645 29.1271C9.90094 28.8523 9.37364 28.3253 9.09839 27.6619L8.13426 25.3342C7.8597 24.6702 7.33269 24.1423 6.6691 23.8668L4.34219 22.9029C3.67841 22.628 3.15098 22.1007 2.87581 21.437C2.60065 20.7733 2.60027 20.0275 2.87477 19.3635L3.83792 17.0381C4.11231 16.374 4.11175 15.6281 3.83636 14.9645L2.8746 12.6358C2.73824 12.3069 2.66803 11.9543 2.66797 11.5983C2.66791 11.2422 2.73801 10.8896 2.87427 10.5607C3.01052 10.2317 3.21025 9.93282 3.46206 9.68108C3.71386 9.42935 4.0128 9.22971 4.34179 9.09355L6.66703 8.13037C7.33046 7.85604 7.85795 7.32968 8.13371 6.66682L9.09754 4.33983C9.37261 3.67574 9.9002 3.14813 10.5643 2.87305C11.2283 2.59798 11.9745 2.59798 12.6385 2.87305L14.9638 3.83624C15.6278 4.11063 16.3737 4.11007 17.0374 3.83468L19.3653 2.87455C20.0292 2.59963 20.7752 2.59968 21.4391 2.8747C22.1031 3.14972 22.6306 3.67719 22.9057 4.3411L23.8698 6.66879L23.8695 6.66476Z" stroke="#E9FFFC" stroke-width="3" stroke-linecap="round" stroke-linejoin="round"/>
</svg>
