<svg xmlns="http://www.w3.org/2000/svg" width="38" height="36" viewBox="0 0 38 36" fill="none">
  <path d="M11.4884 0L14.7287 3.241C13.1576 5.99094 11.7829 8.74088 10.6047 11.4908C9.42636 14.1425 8.73902 16.7452 8.54264 19.2987L15.907 20.9192V35.209H0V24.8968C0 18.8076 1.1783 13.897 3.53488 10.165C5.98966 6.33468 8.64083 2.94637 11.4884 0ZM33.5814 0L36.8217 3.241C35.2506 5.99094 33.876 8.74088 32.6977 11.4908C31.5194 14.1425 30.832 16.7452 30.6357 19.2987L38 20.9192V35.209H22.093V24.8968C22.093 18.8076 23.2713 13.897 25.6279 10.165C28.0827 6.33468 30.7339 2.94637 33.5814 0Z" fill="currentColor"/>
</svg>
