<svg xmlns="http://www.w3.org/2000/svg" viewBox="0 0 131 131" fill="none">
  <path d="M65.1667 129.333C100.605 129.333 129.333 100.605 129.333 65.1667C129.333 29.7284 100.605 1 65.1667 1C29.7284 1 1 29.7284 1 65.1667C1 100.605 29.7284 129.333 65.1667 129.333Z" stroke="currentColor" stroke-width="2" stroke-linecap="round" stroke-linejoin="round"/>
  <path d="M49.125 45.6942C49.125 42.6316 49.125 41.1003 49.765 40.2455C50.3227 39.5005 51.1765 39.0344 52.1048 38.9681C53.17 38.892 54.458 39.7201 57.0342 41.3762L87.3247 60.8486C89.5602 62.2857 90.6779 63.0043 91.064 63.9179C91.4013 64.7162 91.4013 65.6171 91.064 66.4154C90.6779 67.3291 89.5602 68.0476 87.3247 69.4847L57.0342 88.9572C54.458 90.6133 53.17 91.4413 52.1048 91.3653C51.1765 91.299 50.3227 90.8328 49.765 90.0879C49.125 89.233 49.125 87.7017 49.125 84.6391V45.6942Z" stroke="currentColor" stroke-width="2" stroke-linecap="round" stroke-linejoin="round"/>
</svg>
