<svg viewBox="0 0 66.0474 141.286" fill="none" xmlns="http://www.w3.org/2000/svg">
<g id="Tree1">
<path id="Vector" d="M33.0201 139.286V22.048" stroke="var(--stroke-0, white)" stroke-width="4" stroke-linecap="round" stroke-linejoin="round"/>
<path id="Vector_2" d="M33.0201 81.1928L20.8005 66.5075" stroke="var(--stroke-0, white)" stroke-width="4" stroke-linecap="round" stroke-linejoin="round"/>
<path id="Vector_3" d="M33.0201 42.8564L20.8005 28.1711" stroke="var(--stroke-0, white)" stroke-width="4" stroke-linecap="round" stroke-linejoin="round"/>
<path id="Vector_4" d="M33.0201 61.808L45.2504 47.1122" stroke="var(--stroke-0, white)" stroke-width="4" stroke-linecap="round" stroke-linejoin="round"/>
<path id="Vector_5" d="M54.888 35.3967C56.3544 32.0543 57.0769 28.3088 56.8431 24.3722C56.1312 12.5306 46.568 2.87488 34.7097 2.05786C20.7687 1.10289 9.15464 12.1168 9.15464 25.8365C9.15464 29.2743 9.88787 32.5424 11.1948 35.4922C12.9056 39.3333 12.1299 43.8428 9.39908 47.0473C4.69186 52.5542 1.88663 59.7271 2.00352 67.5578C2.23728 84.5137 16.4652 98.3183 33.4452 98.0954C50.3827 97.8726 64.0474 84.0893 64.0474 67.1228C64.0474 59.4512 61.2529 52.4375 56.6307 47.0261C53.868 43.8004 53.1879 39.2802 54.8986 35.3967H54.888Z" stroke="var(--stroke-0, white)" stroke-width="4" stroke-linecap="round" stroke-linejoin="round"/>
</g>
</svg>
