<svg preserveAspectRatio="none" width="100%" height="100%" overflow="visible" style="display: block;" viewBox="0 0 53.0375 114" fill="none" xmlns="http://www.w3.org/2000/svg">
<g id="Tree1">
<path id="Vector" d="M26.5159 112V18.0636" stroke="currentColor" stroke-width="4" stroke-linecap="round" stroke-linejoin="round"/>
<path id="Vector_2" d="M26.5159 65.4532L16.8585 53.6867" stroke="currentColor" stroke-width="4" stroke-linecap="round" stroke-linejoin="round"/>
<path id="Vector_3" d="M26.5159 34.7362L16.8585 22.9697" stroke="currentColor" stroke-width="4" stroke-linecap="round" stroke-linejoin="round"/>
<path id="Vector_4" d="M26.5159 49.9212L36.1818 38.1462" stroke="currentColor" stroke-width="4" stroke-linecap="round" stroke-linejoin="round"/>
<path id="Vector_5" d="M43.7986 28.7592C44.9575 26.0811 45.5285 23.08 45.3438 19.9258C44.7811 10.4378 37.2231 2.70111 27.8512 2.04647C16.8333 1.2813 7.65448 10.1062 7.65448 21.099C7.65448 23.8536 8.23396 26.4722 9.26689 28.8357C10.6189 31.9134 10.0059 35.5266 7.84766 38.0942C4.12744 42.5066 1.9104 48.2539 2.00278 54.5282C2.18753 68.1141 13.4322 79.175 26.8519 78.9964C40.2379 78.8179 51.0375 67.774 51.0375 54.1796C51.0375 48.0328 48.8289 42.4131 45.1758 38.0772C42.9924 35.4926 42.455 31.8709 43.807 28.7592H43.7986Z" stroke="currentColor" stroke-width="4" stroke-linecap="round" stroke-linejoin="round"/>
</g>
</svg>
